<svg xmlns="http://www.w3.org/2000/svg" width="17.217" height="17.217" viewBox="0 0 17.217 17.217">
    <path fill="#fff" d="M11.983 3.375a8.608 8.608 0 1 0 8.608 8.608 8.607 8.607 0 0 0-8.608-8.608zm-7.45 8.608a7.451 7.451 0 0 1 14.9-.315 2.52 2.52 0 0 0-1.813-.993c-1.138 0-1.726 1.064-2.111 1.767-.058.1-.112.2-.161.29a2.048 2.048 0 0 1-1.759 1.2 1.675 1.675 0 0 1-1.333-1.192 3.228 3.228 0 0 0-2.193-2.04 1.97 1.97 0 0 0-1.85.886c-.132.166-.286.389-.459.646-.43.641-1.084 1.606-1.577 1.689a1.891 1.891 0 0 1-1.506-.509 7.423 7.423 0 0 1-.137-1.429z" transform="translate(-3.375 -3.375)"/>
</svg>
