<svg xmlns="http://www.w3.org/2000/svg" width="22" height="21.5" viewBox="0 0 22 21.5">
    <g stroke-width="2px">
        <path fill="none" stroke="#080808" d="M12 22a2.006 2.006 0 0 0 2-2h-4a2 2 0 0 0 2 2zm6-6v-5c0-3.07-1.64-5.64-4.5-6.32V4a1.5 1.5 0 0 0-3 0v.68C7.63 5.36 6 7.92 6 11v5l-2 2v1h16v-1z" transform="translate(-1729 -38.5) translate(1726 37)"/>
        <g fill="#ffa200" stroke="#fff" transform="translate(-1729 -38.5) translate(1740 44)">
            <circle cx="5.5" cy="5.5" r="5.5" stroke="none"/>
            <circle cx="5.5" cy="5.5" r="4.5" fill="none"/>
        </g>
    </g>
</svg>
