<svg xmlns="http://www.w3.org/2000/svg" width="12.293" height="12.286" viewBox="0 0 12.293 12.286">
    <path d="M12.032 7.918H13.4v1.367a.684.684 0 0 0 1.367 0V7.918h1.367a.684.684 0 1 0 0-1.367h-1.367V5.184a.684.684 0 0 0-1.367 0v1.367h-1.368a.684.684 0 0 0 0 1.367zm3.561 4.969l-1.736-.2a1.36 1.36 0 0 0-1.121.39l-1.258 1.258a10.284 10.284 0 0 1-4.5-4.5l1.261-1.268a1.368 1.368 0 0 0 .39-1.121l-.2-1.723a1.367 1.367 0 0 0-1.352-1.216H5.894a1.357 1.357 0 0 0-1.367 1.415 11.615 11.615 0 0 0 10.862 10.861 1.357 1.357 0 0 0 1.411-1.367v-1.182a1.354 1.354 0 0 0-1.21-1.347z" transform="translate(-4.525 -4.5)"/>
</svg>
