<svg xmlns="http://www.w3.org/2000/svg" width="16" height="17" viewBox="0 0 16 17">
    <defs>
        <style>
            .cls-1,.cls-3{fill:none}.cls-1{stroke:#080808;stroke-width:2px}.cls-2{stroke:none}
        </style>
    </defs>
    <g id="Group_44" transform="translate(-1691 -34)">
        <g id="Rectangle_577" class="cls-1">
            <path d="M0 0H7V7H0z" class="cls-2" transform="translate(1700 34)"/>
            <path d="M1 1H6V6H1z" class="cls-3" transform="translate(1700 34)"/>
        </g>
        <g id="Rectangle_580" class="cls-1">
            <path d="M0 0H7V7H0z" class="cls-2" transform="translate(1691 34)"/>
            <path d="M1 1H6V6H1z" class="cls-3" transform="translate(1691 34)"/>
        </g>
        <g id="Rectangle_578" class="cls-1">
            <path d="M0 0H7V7H0z" class="cls-2" transform="translate(1700 44)"/>
            <path d="M1 1H6V6H1z" class="cls-3" transform="translate(1700 44)"/>
        </g>
        <g id="Rectangle_579" class="cls-1">
            <path d="M0 0H7V7H0z" class="cls-2" transform="translate(1691 44)"/>
            <path d="M1 1H6V6H1z" class="cls-3" transform="translate(1691 44)"/>
        </g>
    </g>
</svg>
