<svg xmlns="http://www.w3.org/2000/svg" width="18.217" height="18.217" viewBox="0 0 18.217 18.217">
    <g>
        <path fill="#fff" d="M9.108 10.247a5.123 5.123 0 1 0-5.123-5.124 5.125 5.125 0 0 0 5.123 5.124zm4.554 1.139H11.7a6.194 6.194 0 0 1-5.188 0H4.554A4.554 4.554 0 0 0 0 15.94v.569a1.708 1.708 0 0 0 1.708 1.708h14.8a1.708 1.708 0 0 0 1.708-1.708v-.569a4.554 4.554 0 0 0-4.553-4.555z" transform="translate(-41 -549) translate(41 549)"/>
        <path d="M14.954 8.549a2.037 2.037 0 0 1-.533 1.411 2.3 2.3 0 0 1-1.384.731v.937a.165.165 0 0 1-.171.171h-.723a.174.174 0 0 1-.171-.171v-.937a3.375 3.375 0 0 1-.683-.166 3.288 3.288 0 0 1-.94-.5 3.053 3.053 0 0 1-.249-.2q-.067-.064-.094-.1A.163.163 0 0 1 10 9.513l.552-.723a.167.167 0 0 1 .123-.064.133.133 0 0 1 .129.048l.011.011a2.8 2.8 0 0 0 1.3.669 1.87 1.87 0 0 0 .4.043 1.3 1.3 0 0 0 .763-.23.75.75 0 0 0 .329-.653.543.543 0 0 0-.08-.284 1 1 0 0 0-.179-.225 1.47 1.47 0 0 0-.313-.2q-.214-.11-.353-.171t-.428-.174l-.329-.134q-.12-.048-.329-.142t-.335-.166q-.126-.072-.3-.19a1.886 1.886 0 0 1-.286-.228 3.338 3.338 0 0 1-.233-.262 1.31 1.31 0 0 1-.19-.311 2.148 2.148 0 0 1-.112-.356 1.859 1.859 0 0 1-.046-.418 1.831 1.831 0 0 1 .525-1.3 2.45 2.45 0 0 1 1.366-.718v-.96a.174.174 0 0 1 .171-.171h.723a.165.165 0 0 1 .171.171v.942a2.979 2.979 0 0 1 .592.123 3.431 3.431 0 0 1 .466.179 2.58 2.58 0 0 1 .34.2q.161.112.209.155t.08.075a.155.155 0 0 1 .027.2l-.434.782a.146.146 0 0 1-.123.086.171.171 0 0 1-.145-.037q-.016-.016-.078-.064t-.209-.142a2.763 2.763 0 0 0-.313-.171 2.392 2.392 0 0 0-.4-.139 1.787 1.787 0 0 0-.458-.062 1.392 1.392 0 0 0-.83.23.72.72 0 0 0-.276.851.6.6 0 0 0 .158.222 2.359 2.359 0 0 0 .212.177 1.886 1.886 0 0 0 .3.166q.2.094.324.145t.375.147q.284.107.434.169t.399.191a3.235 3.235 0 0 1 .4.228 3.419 3.419 0 0 1 .332.268 1.387 1.387 0 0 1 .284.34 1.941 1.941 0 0 1 .169.41 1.767 1.767 0 0 1 .07.5z" transform="translate(-41 -549) translate(37.616 547.262)"/>
    </g>
</svg>
