<svg xmlns="http://www.w3.org/2000/svg" width="17.818" height="17.812" viewBox="0 0 17.818 17.812">
    <defs>
        <style>
            .cls-1{fill:#fff}
        </style>
    </defs>
    <g id="Icon_ionic-ios-home" transform="translate(-3.374 -3.375)">
        <path id="Path_2463" d="M13.708 7.295a.168.168 0 0 0-.214 0l-6.68 5.344a.18.18 0 0 0-.064.133v9.848a.086.086 0 0 0 .086.086h4.624a.086.086 0 0 0 .086-.086v-5.995a.086.086 0 0 1 .086-.086h3.938a.086.086 0 0 1 .086.086v5.994a.086.086 0 0 0 .086.086h4.624a.086.086 0 0 0 .086-.086v-9.848a.173.173 0 0 0-.064-.133z" class="cls-1" transform="translate(-1.32 -1.518)"/>
        <path id="Path_2464" d="M20.96 10.063l-8.093-6.482a.94.94 0 0 0-1.173 0L8.17 6.445V4.638a.086.086 0 0 0-.086-.086H5.515a.086.086 0 0 0-.086.086v3.948L3.6 10.089a.6.6 0 0 0-.051.895.6.6 0 0 0 .424.176.6.6 0 0 0 .377-.133l7.874-6.337a.077.077 0 0 1 .056-.017.1.1 0 0 1 .056.017L20.21 11a.6.6 0 0 0 .377.133.608.608 0 0 0 .6-.634.608.608 0 0 0-.227-.436z" class="cls-1"/>
    </g>
</svg>
