<svg xmlns="http://www.w3.org/2000/svg" width="17.599" height="17.603" viewBox="0 0 17.599 17.603">
    <path fill="#fff" d="M20.646 13.3a2.265 2.265 0 0 1 1.454-2.113 8.977 8.977 0 0 0-1.087-2.617 2.3 2.3 0 0 1-.921.2 2.26 2.26 0 0 1-2.067-3.181A8.949 8.949 0 0 0 15.412 4.5a2.263 2.263 0 0 1-4.226 0A8.977 8.977 0 0 0 8.57 5.586 2.26 2.26 0 0 1 6.5 8.767a2.22 2.22 0 0 1-.921-.2A9.175 9.175 0 0 0 4.5 11.191a2.264 2.264 0 0 1 0 4.226 8.977 8.977 0 0 0 1.086 2.617 2.261 2.261 0 0 1 2.984 2.984 9.029 9.029 0 0 0 2.621 1.082 2.259 2.259 0 0 1 4.216 0 8.977 8.977 0 0 0 2.617-1.086 2.263 2.263 0 0 1 2.984-2.984 9.029 9.029 0 0 0 1.086-2.617 2.275 2.275 0 0 1-1.448-2.113zm-7.305 3.662a3.666 3.666 0 1 1 3.666-3.666 3.665 3.665 0 0 1-3.666 3.665z" transform="translate(-4.5 -4.5)"/>
</svg>
